<svg xmlns="http://www.w3.org/2000/svg" version="1.1" width="590" height="140">
                    <path d="M0 0 C5.20607686 4.35486036 10.07212018 8.92876859 14.86303711 13.73364258 C15.61508423 14.48393738 16.36713135 15.23423218 17.14196777 16.00726318 C19.60626714 18.46719052 22.06692567 20.93072231 24.52734375 23.39453125 C26.24355193 25.11006549 27.95990851 26.82545128 29.67640686 28.54069519 C33.26124061 32.12405864 36.84426896 35.70921499 40.42602539 39.2956543 C45.02857354 43.90392523 49.63563097 48.50765789 54.24402523 53.11008167 C57.78269177 56.64514658 61.31898786 60.18257498 64.85455513 63.72073936 C66.55357925 65.42043252 68.2533519 67.11937778 69.95387077 68.81757545 C72.31924218 71.1804241 74.68141301 73.54642523 77.04272461 75.91333008 C77.75173416 76.6203154 78.46074371 77.32730072 79.1912384 78.05570984 C79.82901215 78.69630341 80.46678589 79.33689697 81.12388611 79.99690247 C81.96198523 80.83556713 81.96198523 80.83556713 82.81701565 81.69117451 C84 83 84 83 84 84 C56.28 84 28.56 84 0 84 C0 81.03 0 78.06 0 75 C2.475 74.505 2.475 74.505 5 74 C5.33 73.01 5.66 72.02 6 71 C4.02 71 2.04 71 0 71 C0 69.02 0 67.04 0 65 C3.3 65 6.6 65 10 65 C10 63.68 10 62.36 10 61 C6.7 61 3.4 61 0 61 C0 59.02 0 57.04 0 55 C1.98 55 3.96 55 6 55 C6 53.68 6 52.36 6 51 C4.02 51 2.04 51 0 51 C0 49.02 0 47.04 0 45 C3.3 45 6.6 45 10 45 C10 43.68 10 42.36 10 41 C6.7 41 3.4 41 0 41 C0 39.02 0 37.04 0 35 C1.98 35 3.96 35 6 35 C5.505 33.515 5.505 33.515 5 32 C3.35 31.67 1.7 31.34 0 31 C0 29.35 0 27.7 0 26 C2.97 25.67 5.94 25.34 9 25 C9 24.01 9 23.02 9 22 C6.03 21.67 3.06 21.34 0 21 C0 19.35 0 17.7 0 16 C1.98 15.67 3.96 15.34 6 15 C5.67 14.01 5.34 13.02 5 12 C3.35 11.67 1.7 11.34 0 11 C0 7.37 0 3.74 0 0 Z M14 34 C14 46.21 14 58.42 14 71 C26.21 71 38.42 71 51 71 C46.40586082 65.58260047 46.40586082 65.58260047 41.58081055 60.45141602 C40.98386887 59.85132217 40.38692719 59.25122833 39.77189636 58.63294983 C39.14978775 58.01286545 38.52767914 57.39278107 37.88671875 56.75390625 C37.23169876 56.09792953 36.57667877 55.44195282 35.90180969 54.76609802 C34.53073805 53.39435098 33.15842327 52.0238454 31.78491211 50.65454102 C29.67248899 48.54752743 27.56552392 46.43515974 25.45898438 44.32226562 C24.12271682 42.98665795 22.78613959 41.65136001 21.44921875 40.31640625 C20.81698898 39.68215225 20.18475922 39.04789825 19.53337097 38.39442444 C17.14207794 35.41503681 17.14207794 35.41503681 14 34 Z " fill="#3791DE" transform="translate(24,39)"/>
                    <path d="M0 0 C4.28384442 3.38152136 6.23331886 6.4960439 6.875 11.9375 C6.91625 13.278125 6.9575 14.61875 7 16 C2.71 16 -1.58 16 -6 16 C-6.495 14.329375 -6.495 14.329375 -7 12.625 C-7.988072 10.31169399 -8.5289774 9.25162797 -10.76953125 8.0546875 C-15.04388467 6.8941556 -18.68783521 6.79660517 -23 8 C-23.99 8.66 -24.98 9.32 -26 10 C-26.73606499 13.56769552 -26.73606499 13.56769552 -27 17 C-22.66012624 18.49922912 -18.33757282 19.92631817 -13.8984375 21.1015625 C3.67757849 25.82191162 3.67757849 25.82191162 8.16796875 32.8203125 C10.07821958 37.82463157 9.90145131 44.11638018 8.3125 49.19921875 C5.62735331 54.35693802 1.59947739 56.94874076 -3.65625 59.07421875 C-12.67212542 61.57043659 -23.27828349 61.40135612 -31.8125 57.5 C-36.71762098 54.60863188 -40.14220238 51.46843253 -42 46 C-42.34495272 43.5002741 -42.26412479 41.53559802 -42 39 C-37.71 39 -33.42 39 -29 39 C-28.62875 40.093125 -28.2575 41.18625 -27.875 42.3125 C-26.62059846 45.18136278 -26.00425887 45.99685655 -23.375 47.9375 C-18.0859991 49.60255584 -13.32712119 49.67874368 -8 48.125 C-5.84621944 47.15936335 -5.84621944 47.15936335 -5 45 C-4.960008 43.00039988 -4.95653201 40.99952758 -5 39 C-11.0258768 35.53832609 -17.14374077 33.66357068 -23.83178711 31.92700195 C-29.73266262 30.3223131 -34.14779038 27.9984367 -38.375 23.4375 C-40.67380117 18.57465136 -40.65624851 14.29049721 -40 9 C-37.80086632 3.37999171 -33.00305724 0.21018042 -28 -2.8125 C-19.17576963 -6.21697025 -7.95604017 -4.93420473 0 0 Z " fill="#3791DE" transform="translate(197,45)"/>
                    <path d="M0 0 C35.37142857 0 35.37142857 0 43.375 5.1875 C47.65363646 9.77175334 49.12034215 14.33399335 49.375 20.5625 C49.15540471 25.67467833 47.98294314 29.82677444 44.453125 33.6953125 C37.76529018 39.82089572 31.37355532 40.2859814 22.625 40.125 C19.44875 40.08375 16.2725 40.0425 13 40 C13 47.26 13 54.52 13 62 C8.71 62 4.42 62 0 62 C0 41.54 0 21.08 0 0 Z M13 11 C12.97316013 13.97922593 12.95323963 16.95821295 12.9375 19.9375 C12.92912109 20.78763672 12.92074219 21.63777344 12.91210938 22.51367188 C12.90888672 23.32255859 12.90566406 24.13144531 12.90234375 24.96484375 C12.89710693 25.7137085 12.89187012 26.46257324 12.88647461 27.23413086 C12.80658248 29.02667739 12.80658248 29.02667739 14 30 C20.54478334 30.49459698 26.83276543 30.31271296 33 28 C35.44787613 25.24613936 35.93995768 23.58841476 36.3125 19.9375 C36.00208047 17.01955639 35.69638813 15.37494338 34 13 C30.13237941 10.21768111 25.79798293 10.77695062 21.25 10.875 C20.06083984 10.88853516 20.06083984 10.88853516 18.84765625 10.90234375 C16.89830719 10.92582988 14.94911425 10.96169863 13 11 Z " fill="#3691DE" transform="translate(391,42)"/>
                    <path d="M0 0 C5.12126491 6.46896621 6.375 12.85202613 6.375 21 C-4.185 21 -14.745 21 -25.625 21 C-24.38994498 27.64333873 -24.38994498 27.64333873 -21.5 29.9375 C-17.77519358 31.3140589 -14.5405953 31.90421995 -10.625 31 C-9.861875 30.175 -9.09875 29.35 -8.3125 28.5 C-5.0893717 25.50174111 -4.07996555 25.66028402 0.1875 25.6875 C1.91795278 25.76750772 3.64805325 25.86390087 5.375 26 C2.99307071 32.39359966 0.37434744 36.18789426 -5.625 39.8125 C-11.99171282 42.2612357 -19.75972452 41.97214704 -26.125 39.8125 C-28.95648939 37.75967019 -31.2816549 35.5966797 -33.625 33 C-34.181875 32.401875 -34.73875 31.80375 -35.3125 31.1875 C-38.76762085 25.42896525 -39.5392458 18.31001592 -38.16015625 11.80859375 C-36.39621394 5.64001442 -33.49072516 0.32114182 -27.85546875 -3.0625 C-17.955034 -7.54897152 -8.64736021 -6.58846492 0 0 Z M-23.625 6 C-25.99480013 8.95377498 -25.99480013 8.95377498 -25.625 13 C-19.355 13 -13.085 13 -6.625 13 C-7.12878619 7.49176833 -7.12878619 7.49176833 -8.8125 5.1875 C-14.09256194 1.72814907 -18.37903196 3.17524798 -23.625 6 Z " fill="#3992DE" transform="translate(329.625,64)"/>
                    <path d="M0 0 C4.20432339 3.62038959 6.43417408 8.12648986 7.6875 13.453125 C7.6875 16.423125 7.6875 19.393125 7.6875 22.453125 C-2.8725 22.453125 -13.4325 22.453125 -24.3125 22.453125 C-22.24468364 29.85941099 -22.24468364 29.85941099 -19.625 31.953125 C-16.11018376 32.71308527 -12.84547561 33.16386033 -9.3125 32.453125 C-7.85803314 31.1883712 -6.40366258 29.91975755 -5.03125 28.56640625 C-1.57313212 26.32648899 2.73168361 27.10132315 6.6875 27.453125 C5.2392708 32.98272738 2.92788526 37.44574017 -1.99609375 40.49609375 C-8.37628005 43.32141533 -15.95197129 43.67815648 -22.6484375 41.796875 C-28.46074929 39.21362531 -32.63939799 34.82224822 -35.453125 29.15625 C-37.54125612 22.58812848 -37.59387262 14.18896206 -34.625 7.890625 C-30.80886344 1.62412706 -26.00052002 -1.98420166 -19.0625 -4.296875 C-11.92227201 -4.94598664 -5.94626316 -4.17197496 0 0 Z M-22.3125 7.453125 C-24.19691939 10.07492589 -24.3125 11.18656424 -24.3125 14.453125 C-17.7125 14.453125 -11.1125 14.453125 -4.3125 14.453125 C-5.77879155 8.90943984 -5.77879155 8.90943984 -9.3125 5.453125 C-14.47422425 3.81075819 -17.64767823 4.85158978 -22.3125 7.453125 Z " fill="#3892DE" transform="translate(278.3125,62.546875)"/>
                    <path d="M0 0 C3.96 0 7.92 0 12 0 C12.01981934 0.91813477 12.03963867 1.83626953 12.06005859 2.78222656 C12.13826955 6.19671825 12.22496584 9.61077702 12.31738281 13.02490234 C12.35560666 14.50105536 12.39047103 15.97729943 12.421875 17.45361328 C12.46766986 19.57878094 12.52563837 21.70332542 12.5859375 23.828125 C12.6173584 25.1059082 12.6487793 26.38369141 12.68115234 27.70019531 C12.97518359 30.74317103 13.23417112 32.53308832 15 35 C18.32566085 36.03465004 20.38452481 36.16785687 23.75 35.25 C26.28734531 34.06510167 26.28734531 34.06510167 28 31 C28.35360842 27.8161155 28.35360842 27.8161155 28.37890625 24.1796875 C28.39590073 23.52042267 28.4128952 22.86115784 28.43040466 22.18191528 C28.48346652 20.079707 28.52381367 17.97751815 28.5625 15.875 C28.60639921 13.76543898 28.65304409 11.65603217 28.70530701 9.54666138 C28.75187712 7.63785686 28.78935386 5.72883702 28.82641602 3.81982422 C29 1 29 1 30 0 C31.83115883 -0.09851171 33.66619933 -0.12972629 35.5 -0.125 C36.5003125 -0.12757812 37.500625 -0.13015625 38.53125 -0.1328125 C41 0 41 0 42 1 C42.0927833 2.38160115 42.11747043 3.76788038 42.11352539 5.15258789 C42.11344986 6.03342545 42.11337433 6.914263 42.11329651 7.8217926 C42.10813522 8.77907761 42.10297394 9.73636261 42.09765625 10.72265625 C42.0962413 11.69786728 42.09482635 12.67307831 42.09336853 13.67784119 C42.08775133 16.80609143 42.07519593 19.93427123 42.0625 23.0625 C42.05748722 25.17773334 42.05292393 27.29296781 42.04882812 29.40820312 C42.03777631 34.60549607 42.02050016 39.80273608 42 45 C38.04 45 34.08 45 30 45 C29.67 43.68 29.34 42.36 29 41 C28.113125 41.825 27.22625 42.65 26.3125 43.5 C21.05207611 47.26818119 15.19348956 46.85290011 9 46 C3.85960341 43.69568429 2.08181967 41.13720819 0 36 C-0.38073495 33.16964433 -0.3513348 30.39062833 -0.29296875 27.5390625 C-0.28872391 26.74849457 -0.28447906 25.95792664 -0.28010559 25.1434021 C-0.26341301 22.6369106 -0.22577983 20.13124539 -0.1875 17.625 C-0.17244092 15.91798042 -0.15875466 14.21094815 -0.14648438 12.50390625 C-0.11354056 8.33562275 -0.06182493 4.16795111 0 0 Z " fill="#3A93DF" transform="translate(470,59)"/>
                    <path d="M0 0 C3.93124008 3.12345103 5.00392961 6.01964804 6 11 C2.04 11 -1.92 11 -6 11 C-6.66 9.68 -7.32 8.36 -8 7 C-13.33169109 5.78553443 -13.33169109 5.78553443 -18.5 6.9375 C-18.995 7.288125 -19.49 7.63875 -20 8 C-19.79459502 9.97039035 -19.79459502 9.97039035 -19 12 C-17.32919198 13.00439759 -17.32919198 13.00439759 -15.1875 13.5 C-13.97900391 13.86158203 -13.97900391 13.86158203 -12.74609375 14.23046875 C-10.80100438 14.77553647 -8.85566683 15.31971888 -6.91015625 15.86328125 C3.81487494 19.08476775 3.81487494 19.08476775 7 25 C7.80304552 29.01522759 7.20000707 32.27140282 6.125 36.1875 C2.85093652 40.52081931 -0.83343473 42.43599447 -6 44 C-13.75819878 44.92090601 -21.07123746 44.77932502 -28 41 C-31.16821326 38.30144649 -32.82462172 35.72849439 -33.8125 31.625 C-33.874375 30.75875 -33.93625 29.8925 -34 29 C-30.37 29 -26.74 29 -23 29 C-22.34 30.65 -21.68 32.3 -21 34 C-17.49760966 35.75119517 -12.80693888 35.1812828 -9 35 C-8.01 34.34 -7.02 33.68 -6 33 C-5.7497843 29.91634129 -5.7497843 29.91634129 -6 27 C-7.0621875 26.75765625 -8.124375 26.5153125 -9.21875 26.265625 C-26.26443028 22.2686235 -26.26443028 22.2686235 -32 17.25 C-33.52264531 13.82404805 -33.62320497 10.63419525 -33 7 C-30.58026566 2.06746462 -28.09097002 -0.0259504 -23 -2 C-15.28458703 -4.23340902 -7.24577485 -3.33654237 0 0 Z " fill="#3791DE" transform="translate(553,61)"/>
                    <path d="M0 0 C3.96 0 7.92 0 12 0 C12 4.29 12 8.58 12 13 C14.97 13 17.94 13 21 13 C21 15.64 21 18.28 21 21 C18.03 21 15.06 21 12 21 C12 29.91 12 38.82 12 48 C14.97 48.33 17.94 48.66 21 49 C21 51.97 21 54.94 21 58 C14.05753975 59.07559243 8.34156152 59.44412393 2 56 C-0.45378929 52.31931607 -0.30646214 50.31946281 -0.4140625 45.92578125 C-0.43342865 45.2419487 -0.4527948 44.55811615 -0.4727478 43.8535614 C-0.53243997 41.67333375 -0.57888631 39.49305298 -0.625 37.3125 C-0.66318943 35.8326595 -0.70224174 34.352841 -0.7421875 32.87304688 C-0.83813202 29.2488995 -0.92220151 25.62458743 -1 22 C-3.31 21.67 -5.62 21.34 -8 21 C-8 18.36 -8 15.72 -8 13 C-5.36 13 -2.72 13 0 13 C0 8.71 0 4.42 0 0 Z " fill="#3892DE" transform="translate(217,46)"/>
                    <path d="M0 0 C1.81242052 -0.02687279 3.62495233 -0.04633715 5.4375 -0.0625 C6.44683594 -0.07410156 7.45617187 -0.08570313 8.49609375 -0.09765625 C11 0 11 0 12 1 C12.09391296 2.90243762 12.11743658 4.80838459 12.11352539 6.71313477 C12.11344986 7.9343251 12.11337433 9.15551544 12.11329651 10.41371155 C12.10818911 11.75627686 12.10297311 13.09884175 12.09765625 14.44140625 C12.09579199 15.80761158 12.09436813 17.17381757 12.09336853 18.5400238 C12.08954394 22.14201695 12.07971417 25.74397 12.06866455 29.34594727 C12.05844916 33.01903745 12.05387064 36.69213409 12.04882812 40.36523438 C12.03809184 47.57684334 12.02049553 54.78841095 12 62 C8.04 62 4.08 62 0 62 C-1.10943238 55.75269484 -1.14483094 49.63518585 -1.1328125 43.30078125 C-1.13376923 42.18817429 -1.13472595 41.07556732 -1.13571167 39.929245 C-1.13638991 37.58686262 -1.13456053 35.24447833 -1.13037109 32.90209961 C-1.12500262 29.31424766 -1.13033599 25.72652003 -1.13671875 22.13867188 C-1.1360582 19.85937472 -1.13477753 17.58007765 -1.1328125 15.30078125 C-1.13483673 14.22782303 -1.13686096 13.15486481 -1.13894653 12.0493927 C-1.13579437 11.05123032 -1.13264221 10.05306793 -1.12939453 9.0246582 C-1.12859894 8.14864456 -1.12780334 7.27263092 -1.12698364 6.37007141 C-1.00601846 4.1123308 -0.63165772 2.16491387 0 0 Z " fill="#3993DE" transform="translate(344,42)"/>
                    <path d="M0 0 C3.96 0 7.92 0 12 0 C12 20.46 12 40.92 12 62 C8.04 62 4.08 62 0 62 C0 41.54 0 21.08 0 0 Z " fill="#3691DE" transform="translate(448,42)"/>
                    <path d="M0 0 C6.52878733 5.37193906 12.44579862 11.31785074 18.40234375 17.3046875 C19.49071139 18.39492365 20.57930257 19.48493669 21.66810608 20.57473755 C24.51269535 23.42311794 27.35426681 26.27449004 30.19519043 29.12652588 C33.10289665 32.04452 36.01348824 34.95963304 38.92382812 37.875 C44.61869081 43.58053984 50.31036412 49.28924794 56 55 C53.525 57.97 53.525 57.97 51 61 C47.13533667 59.41219641 44.69940845 56.94066771 41.77246094 53.99951172 C41.26469116 53.492034 40.75692139 52.98455627 40.23376465 52.46170044 C38.56251491 50.78906131 36.89845444 49.10945783 35.234375 47.4296875 C34.07467623 46.26625722 32.91453408 45.10326874 31.75396729 43.94070435 C28.70490648 40.884018 25.66190037 37.82137256 22.62011719 34.75744629 C19.51340087 31.63024835 16.40099455 28.50872493 13.2890625 25.38671875 C7.18712583 19.2633512 1.09157402 13.1336764 -5 7 C-3.70700306 4.11562221 -2.34058637 2.12780579 0 0 Z " fill="#3992DE" transform="translate(54,42)"/>
                    <path d="M0 0 C6.52878733 5.37193906 12.44579862 11.31785074 18.40234375 17.3046875 C19.49071139 18.39492365 20.57930257 19.48493669 21.66810608 20.57473755 C24.51269535 23.42311794 27.35426681 26.27449004 30.19519043 29.12652588 C33.10289665 32.04452 36.01348824 34.95963304 38.92382812 37.875 C44.61869081 43.58053984 50.31036412 49.28924794 56 55 C53.525 57.97 53.525 57.97 51 61 C47.13533667 59.41219641 44.69940845 56.94066771 41.77246094 53.99951172 C41.26469116 53.492034 40.75692139 52.98455627 40.23376465 52.46170044 C38.56251491 50.78906131 36.89845444 49.10945783 35.234375 47.4296875 C34.07467623 46.26625722 32.91453408 45.10326874 31.75396729 43.94070435 C28.70490648 40.884018 25.66190037 37.82137256 22.62011719 34.75744629 C19.51340087 31.63024835 16.40099455 28.50872493 13.2890625 25.38671875 C7.18712583 19.2633512 1.09157402 13.1336764 -5 7 C-3.70700306 4.11562221 -2.34058637 2.12780579 0 0 Z " fill="#3591DE" transform="translate(64,32)"/>
                    <path d="M0 0 C3.12953449 1.38792711 5.0154202 3.48693697 7.28125 6.01171875 C5.96004172 8.94402068 4.53486803 10.99836774 2.2421875 13.24609375 C1.37207031 14.10654297 1.37207031 14.10654297 0.484375 14.984375 C-0.11890625 15.57089844 -0.7221875 16.15742187 -1.34375 16.76171875 C-1.95476563 17.36371094 -2.56578125 17.96570313 -3.1953125 18.5859375 C-4.69863624 20.0657718 -6.20809856 21.53936551 -7.71875 23.01171875 C-14.52659314 17.78426777 -14.52659314 17.78426777 -15.29296875 14.703125 C-14.43478098 10.68073468 -11.88166843 8.41027947 -9.03125 5.63671875 C-8.23557617 4.79947266 -8.23557617 4.79947266 -7.42382812 3.9453125 C-3.46920763 0.01495348 -3.46920763 0.01495348 0 0 Z " fill="#3892DE" transform="translate(53.71875,21.98828125)"/>
                    <path d="M0 0 C2.36300349 2.36300349 2.51433444 3.5798498 3.125 6.8125 C3.29257813 7.66457031 3.46015625 8.51664063 3.6328125 9.39453125 C4 12 4 12 4 17 C-1.28 16.01 -6.56 15.02 -12 14 C-9.99006295 9.98012591 -8.06153611 7.85483005 -4.875 4.75 C-3.96492188 3.85796875 -3.05484375 2.9659375 -2.1171875 2.046875 C-1.41851562 1.37140625 -0.71984375 0.6959375 0 0 Z " fill="#3993DE" transform="translate(121,92)"/>
                </svg>